<?xml version="1.0" encoding="UTF-8" standalone="no"?>
<!DOCTYPE svg PUBLIC "-//W3C//DTD SVG 20010904//EN"
              "http://www.w3.org/TR/2001/REC-SVG-20010904/DTD/svg10.dtd">

<svg xmlns="http://www.w3.org/2000/svg"
     width="7.11111in" height="5.33333in"
     viewBox="0 0 640 480">
  <path id="Selection #2"
        fill="none" stroke="black" stroke-width="1"
        d="M 286.00,179.32
           C 291.09,179.37 295.10,180.65 298.40,184.79
             303.84,191.62 301.70,203.36 293.65,207.22
             291.09,208.44 287.95,208.66 285.15,208.51
             274.15,207.94 268.29,195.26 274.51,185.68
             277.30,181.38 281.15,179.96 286.00,179.32 Z
           M 351.45,179.25
           C 356.39,179.16 361.39,180.76 364.50,184.83
             370.03,192.07 367.75,203.85 359.10,207.51
             356.73,208.51 353.99,208.63 351.45,208.52
             338.80,207.95 334.30,193.76 340.95,184.79
             343.80,180.93 346.96,179.96 351.45,179.25 Z" />
</svg>
