<?xml version="1.0" encoding="UTF-8" standalone="no"?>
<!DOCTYPE svg PUBLIC "-//W3C//DTD SVG 20010904//EN"
              "http://www.w3.org/TR/2001/REC-SVG-20010904/DTD/svg10.dtd">

<svg xmlns="http://www.w3.org/2000/svg"
     width="7.11111in" height="5.33333in"
     viewBox="0 0 640 480">
  <path id="Selection"
        fill="none" stroke="black" stroke-width="1"
        d="M 375.25,99.75
           C 380.47,84.07 404.48,83.67 412.30,98.05
             414.04,101.25 414.31,103.85 414.35,107.40
             414.37,109.98 414.40,112.55 413.68,115.05
             411.10,123.97 401.44,130.22 392.25,129.24
             385.36,128.51 379.25,125.47 375.70,119.30
             373.16,114.87 373.78,111.21 370.77,109.04
             369.03,107.79 362.33,106.39 359.95,105.88
             359.95,105.88 338.70,100.60 338.70,100.60
             338.70,100.60 326.80,140.55 326.80,140.55
             340.50,140.56 356.50,144.25 369.30,149.10
             369.30,149.10 386.30,156.93 386.30,156.93
             388.89,157.31 392.96,154.39 396.50,153.34
             402.69,151.50 411.26,152.23 416.90,155.45
             432.86,164.57 434.53,190.86 416.90,199.20
             421.10,222.61 405.12,242.71 386.30,254.40
             379.35,258.71 376.27,259.66 369.30,262.95
             375.20,265.21 379.21,269.01 383.16,274.00
             395.58,290.63 395.62,317.53 383.16,334.35
             380.22,338.62 376.40,342.27 371.85,344.99
             369.44,346.44 365.33,347.68 363.70,349.23
             361.77,351.06 360.16,356.34 359.10,359.00
             369.36,360.35 378.04,361.36 384.39,370.90
             387.32,375.31 390.55,387.52 385.10,391.15
             383.29,392.35 379.93,392.15 377.80,392.15
             377.80,392.15 280.90,392.15 280.90,392.15
             280.90,392.15 259.65,392.15 259.65,392.15
             257.53,392.14 254.97,392.31 253.28,390.79
             250.94,388.68 251.09,384.02 251.16,381.10
             251.42,370.34 259.97,363.04 269.85,360.50
             269.85,360.50 279.20,359.00 279.20,359.00
             278.30,356.31 277.06,351.98 275.25,349.88
             273.36,347.70 269.11,346.20 266.45,344.66
             262.29,342.23 258.92,339.06 256.05,335.20
             240.02,313.66 243.06,275.68 269.00,262.95
             269.00,262.95 252.85,254.92 252.85,254.92
             236.88,245.42 221.63,229.01 221.40,209.40
             221.38,207.17 221.64,202.04 220.89,200.19
             220.06,198.15 216.67,195.34 215.05,193.25
             211.58,188.78 209.32,181.93 209.78,176.25
             211.50,154.63 235.43,144.98 252.00,158.40
             255.36,155.04 259.63,153.28 263.90,151.34
             275.00,146.30 285.88,143.54 297.90,141.76
             297.90,141.76 308.95,140.56 308.95,140.56
             310.85,140.51 313.78,140.77 315.39,139.68
             317.46,138.28 319.40,130.45 320.28,127.80
             320.28,127.80 327.53,104.85 327.53,104.85
             328.38,101.91 330.34,94.47 332.33,92.34
             335.24,89.55 340.29,91.36 343.80,92.34
             343.80,92.34 375.25,99.75 375.25,99.75 Z
           M 390.55,96.70
           C 375.50,102.01 381.56,123.74 397.35,119.80
             405.10,117.86 408.33,107.80 403.72,101.47
             400.25,96.70 396.03,95.92 390.55,96.70 Z
           M 308.95,149.29
           C 308.95,149.29 291.95,151.60 291.95,151.60
             272.85,155.47 250.15,165.33 238.33,181.35
             223.68,201.22 228.68,224.15 246.90,239.75
             264.08,254.45 291.60,262.68 314.05,262.95
             338.23,263.23 361.07,259.39 382.05,246.63
             397.96,236.95 408.62,223.37 408.40,204.30
             408.22,189.16 398.12,176.60 386.30,168.11
             365.74,153.35 333.95,146.97 308.95,149.29 Z
           M 244.35,163.50
           C 238.42,160.91 233.38,159.72 227.35,163.00
             217.15,168.56 215.47,182.76 224.80,189.85
             228.25,181.84 231.41,176.62 237.58,170.31
             237.58,170.31 244.35,163.50 244.35,163.50 Z
           M 413.50,189.85
           C 422.43,186.97 422.08,173.24 416.96,167.06
             410.69,159.47 402.95,160.26 394.80,163.50
             394.80,163.50 394.80,165.20 394.80,165.20
             402.16,170.47 410.98,181.02 413.50,189.85 Z
           M 286.12,230.52
           C 290.77,230.20 294.46,234.46 298.75,236.22
             304.75,238.67 311.84,239.55 318.30,239.51
             325.78,239.46 333.41,239.33 340.40,236.31
             346.75,233.57 349.53,229.40 353.03,230.52
             356.60,231.67 355.64,235.91 353.73,238.14
             350.43,242.00 342.74,244.84 337.85,246.04
             325.82,248.98 306.97,248.62 295.35,244.19
             290.99,242.53 278.12,235.62 286.12,230.52 Z
           M 359.95,265.50
           C 359.95,265.50 327.65,270.74 327.65,270.74
             327.65,270.74 316.60,271.42 316.60,271.42
             316.60,271.42 290.25,268.22 290.25,268.22
             290.25,268.22 278.35,265.50 278.35,265.50
             278.35,265.50 276.65,286.75 276.65,286.75
             276.61,310.51 278.09,335.40 288.36,357.30
             291.85,364.74 299.37,379.17 307.25,382.17
             309.19,382.91 311.96,382.80 314.05,382.80
             314.05,382.80 325.95,382.80 325.95,382.80
             327.65,382.77 329.44,382.79 331.05,382.17
             338.62,379.28 346.96,364.66 350.11,357.30
             356.71,341.87 361.62,319.70 361.65,302.90
             361.65,302.90 361.65,285.05 361.65,285.05
             361.65,285.05 359.95,265.50 359.95,265.50 Z
           M 370.12,273.15
           C 370.12,273.15 370.12,284.20 370.12,284.20
             370.12,284.20 370.12,300.35 370.12,300.35
             370.12,300.35 367.23,327.55 367.23,327.55
             367.23,327.55 365.05,338.60 365.05,338.60
             385.00,327.38 389.02,300.38 377.40,281.65
             375.21,278.12 373.03,276.06 370.12,273.15 Z
           M 269.00,274.00
           C 263.66,276.58 261.05,281.55 258.61,286.75
             251.20,302.56 255.31,330.72 273.25,337.75
             273.25,337.75 268.92,306.30 268.92,306.30
             268.92,306.30 268.15,296.10 268.15,296.10
             268.15,296.10 269.00,274.00 269.00,274.00 Z
           M 294.50,383.65
           C 293.31,380.62 286.89,370.70 284.21,369.22
             279.68,366.72 260.54,367.66 259.65,383.65
             259.65,383.65 294.50,383.65 294.50,383.65 Z
           M 379.50,382.80
           C 377.30,373.43 371.32,368.61 361.65,368.36
             359.49,368.31 356.03,368.15 354.16,369.22
             351.89,370.50 345.47,380.15 343.80,382.80
             343.80,382.80 364.20,383.65 364.20,383.65
             364.20,383.65 379.50,382.80 379.50,382.80 Z" />
</svg>
