<?xml version="1.0" encoding="UTF-8" standalone="no"?>
<!DOCTYPE svg PUBLIC "-//W3C//DTD SVG 20010904//EN"
              "http://www.w3.org/TR/2001/REC-SVG-20010904/DTD/svg10.dtd">

<svg xmlns="http://www.w3.org/2000/svg"
     width="7.11111in" height="5.33333in"
     viewBox="0 0 640 480">
  <path id="Selection #1"
        fill="none" stroke="black" stroke-width="1"
        d="M 390.55,96.82
           C 395.59,95.96 399.46,96.58 402.97,100.69
             408.44,107.09 405.67,117.47 397.35,119.68
             381.60,123.85 375.50,102.13 390.55,96.82 Z
           M 308.95,149.23
           C 308.95,149.23 324.25,149.23 324.25,149.23
             344.95,149.30 370.49,156.52 387.15,168.92
             398.52,177.38 408.22,189.52 408.40,204.30
             408.61,222.63 399.40,234.75 384.60,244.81
             364.32,258.59 339.05,263.23 314.90,262.95
             314.90,262.95 307.25,262.24 307.25,262.24
             285.02,260.02 264.35,254.35 246.90,239.63
             232.72,227.66 225.53,209.38 232.67,191.55
             234.59,186.74 238.48,180.94 241.95,177.10
             255.08,162.56 276.45,154.52 295.35,151.11
             295.35,151.11 308.95,149.23 308.95,149.23 Z
           M 224.80,189.85
           C 208.49,176.79 228.10,151.79 244.35,164.35
             236.69,170.15 227.49,180.44 224.80,189.85 Z
           M 394.80,163.50
           C 401.79,160.82 407.94,159.59 414.34,164.68
             422.08,170.85 423.24,185.13 413.50,189.85
             409.88,177.18 401.28,172.56 394.80,163.50 Z
           M 284.30,179.08
           C 279.50,180.23 276.08,181.95 273.60,186.45
             267.78,197.02 276.08,210.99 288.55,209.11
             307.86,206.19 305.33,176.94 284.30,179.08 Z
           M 350.60,179.08
           C 345.93,180.19 342.12,182.12 339.62,186.45
             334.09,196.06 340.59,208.00 351.45,209.11
             368.05,210.82 374.55,186.72 358.25,180.06
             355.34,178.87 353.66,178.81 350.60,179.08 Z
           M 286.90,230.36
           C 279.33,233.10 286.28,239.51 290.25,241.80
             298.04,246.29 311.92,248.63 320.85,248.06
             331.35,247.40 340.45,247.10 349.75,241.30
             352.63,239.51 359.41,233.76 353.81,230.71
             350.56,228.94 346.51,233.06 343.80,234.60
             338.16,237.79 331.52,239.12 325.10,239.15
             316.79,239.19 309.31,239.79 301.30,237.15
             295.49,235.22 291.43,230.90 286.90,230.36 Z
           M 278.35,265.50
           C 278.35,265.50 291.10,268.52 291.10,268.52
             296.89,269.68 310.83,271.38 316.60,271.45
             325.36,271.55 338.60,270.25 347.20,268.52
             347.20,268.52 359.95,265.50 359.95,265.50
             359.95,265.50 361.65,285.90 361.65,285.90
             361.69,310.29 360.36,335.77 349.53,358.15
             346.02,365.40 338.81,379.21 331.05,382.17
             329.44,382.79 327.65,382.77 325.95,382.80
             325.95,382.80 314.05,382.80 314.05,382.80
             311.81,382.80 309.35,382.93 307.25,382.07
             299.49,378.93 291.31,364.04 288.06,356.45
             278.78,334.73 276.61,311.79 276.65,288.45
             276.65,288.45 278.35,265.50 278.35,265.50 Z
           M 369.30,273.15
           C 383.82,283.58 386.51,303.91 380.91,319.90
             378.25,327.49 372.94,335.13 365.05,337.75
             369.43,321.21 370.18,304.59 370.15,287.60
             370.15,287.60 369.30,273.15 369.30,273.15 Z
           M 268.18,274.00
           C 268.18,274.00 268.18,285.05 268.18,285.05
             268.18,285.05 268.18,300.35 268.18,300.35
             268.18,300.35 268.86,308.00 268.86,308.00
             268.86,308.00 273.25,337.75 273.25,337.75
             252.80,329.74 247.94,290.69 268.18,274.00 Z
           M 259.65,383.65
           C 260.47,369.01 278.39,366.07 284.14,369.35
             286.55,370.72 292.77,380.06 294.50,382.80
             288.82,384.41 266.99,383.65 259.65,383.65 Z
           M 343.80,382.80
           C 345.38,380.45 352.30,370.45 354.18,369.35
             358.66,366.73 378.25,367.47 378.65,383.65
             378.65,383.65 343.80,382.80 343.80,382.80 Z" />
</svg>
